<?xml version="1.0" encoding="utf-8"?>
<!-- Generator: Adobe Illustrator 22.0.1, SVG Export Plug-In . SVG Version: 6.00 Build 0)  -->
<svg version="1.1" id="Capa_1" xmlns="http://www.w3.org/2000/svg" xmlns:xlink="http://www.w3.org/1999/xlink" x="0px" y="0px"
	 viewBox="0 0 172.9 41.6" style="enable-background:new 0 0 172.9 41.6;" xml:space="preserve">
<style type="text/css">
	.st0{fill:#FFFFFF;}
</style>
<g>
	<g>
		<path class="st0" d="M5.7,35.9c-4-3.9-5.9-8.7-5.9-14.3s2-10.3,5.9-14.3S14.4,1.4,20,1.4s10.3,2,14.3,5.9s5.9,8.7,5.9,14.3
			s-2,10.3-5.9,14.3s-8.7,5.9-14.3,5.9C14.4,41.8,9.6,39.8,5.7,35.9z M6.9,8.6c-3.6,3.6-5.4,7.9-5.4,13s1.8,9.4,5.4,13
			s7.9,5.4,13,5.4s9.4-1.8,13-5.4c3.6-3.6,5.4-7.9,5.4-13s-1.8-9.4-5.4-13C29.4,5,25,3.2,20,3.2C14.9,3.2,10.6,5,6.9,8.6z"/>
		<path class="st0" d="M52.5,1.6h1.8V41h-1.8V1.6z"/>
		<path class="st0" d="M98.1,1.6V41h-2.8L68.7,2.7V41h-1.8V1.6h3.2l26.2,37.7V1.6H98.1z"/>
		<path class="st0" d="M142.2,1.6L122,20.3L143.8,41h-2.6l-20.5-19.4l-9.3,8.6V41h-1.8V1.6h1.8v26.1l28.2-26.1
			C139.6,1.6,142.2,1.6,142.2,1.6z"/>
		<g>
			<path class="st0" d="M15.4,21.8c0,2.8-1,5.1-2.3,5.1s-2.3-2.3-2.3-5.1s1-5.1,2.3-5.1C14.4,16.7,15.4,19,15.4,21.8z"/>
			<path class="st0" d="M29.4,21.8c0,2.8-1,5.1-2.3,5.1s-2.3-2.3-2.3-5.1s1-5.1,2.3-5.1C28.4,16.7,29.4,19,29.4,21.8z"/>
		</g>
		<path class="st0" d="M156.8,11.3c-1-0.1-2.1-0.6-2.2-1c0-0.1,0-0.7,2.3-1.8c0.1-0.1,0.2-0.2,0.2-0.4s-0.1-0.3-0.3-0.3
			c-1.2-0.3-2.3-0.9-2.3-1.2c0,0,0-0.4,1.7-0.9c0.1,0,0.2-0.2,0.2-0.4V4.7l-0.3-2.6l-0.3,2.6v0.4c-1.3,0.4-1.9,0.9-1.9,1.5
			c0,0.8,1,1.3,1.9,1.6c-1.4,0.8-2,1.5-1.9,2.2s0.9,1.1,1.7,1.4c-1.1,0.5-1.5,1.1-1.5,1.6c0,0.3,0.2,0.6,0.5,0.8V41h1.8V14.8v-0.2
			v-0.4c-0.8-0.2-1.7-0.6-1.7-0.9c0,0,0-0.5,2.1-1.4c0.1-0.1,0.2-0.2,0.2-0.4C157.1,11.4,157,11.3,156.8,11.3z"/>
		<path class="st0" d="M172.2,11.3c-1-0.1-2.1-0.6-2.2-1c0-0.1,0-0.7,2.3-1.8c0.1-0.1,0.2-0.2,0.2-0.4s-0.1-0.3-0.3-0.3
			c-1.2-0.3-2.3-0.9-2.3-1.2c0,0,0-0.4,1.7-0.9c0.1,0,0.2-0.2,0.2-0.4V4.7l-0.3-2.6l-0.3,2.6v0.4c-1.3,0.4-1.9,0.9-1.9,1.5
			c0,0.8,1,1.3,1.9,1.6c-1.4,0.8-2,1.5-1.9,2.2s0.9,1.1,1.7,1.4c-1.1,0.5-1.5,1.1-1.5,1.6c0,0.3,0.2,0.6,0.5,0.8V41h1.8V14.8v-0.2
			v-0.4c-0.8-0.2-1.7-0.6-1.7-0.9c0,0,0-0.5,2.1-1.4c0.1-0.1,0.2-0.2,0.2-0.4C172.5,11.4,172.3,11.3,172.2,11.3z"/>
	</g>
</g>
</svg>
